<svg width="20" height="20" viewBox="0 0 20 20" fill="none" xmlns="http://www.w3.org/2000/svg">
<g id="icon/assessment">
<path id="Vector" fill-rule="evenodd" clip-rule="evenodd" d="M1.66667 2.29166C1.66667 1.48625 2.31959 0.833328 3.12501 0.833328H16.875C17.6804 0.833328 18.3333 1.48625 18.3333 2.29166V16.0417C18.3333 16.8471 17.6804 17.5 16.875 17.5H13.3124C13.0914 17.5 12.8794 17.5878 12.7231 17.7441L11.0312 19.436C10.4617 20.0055 9.53832 20.0055 8.96881 19.436L7.27687 17.7441C7.12059 17.5878 6.90863 17.5 6.68761 17.5H3.125C2.31959 17.5 1.66667 16.8471 1.66667 16.0417V2.29166ZM16.875 2.08333H3.12501C3.00995 2.08333 2.91667 2.1766 2.91667 2.29166V16.0417C2.91667 16.1567 3.00995 16.25 3.125 16.25H7.19805C7.41801 16.25 7.62905 16.337 7.78516 16.4919L8.79315 17.4926L9.85269 18.5521C9.93405 18.6335 10.066 18.6335 10.1473 18.5521L11.2069 17.4926L12.2149 16.4919C12.371 16.337 12.582 16.25 12.802 16.25H16.875C16.9901 16.25 17.0833 16.1567 17.0833 16.0417V2.29166C17.0833 2.1766 16.9901 2.08333 16.875 2.08333Z" fill="#413368"/>
<path id="Vector_2" d="M3.12501 2.08333H16.875C16.9901 2.08333 17.0833 2.1766 17.0833 2.29166V16.0417C17.0833 16.1567 16.9901 16.25 16.875 16.25H12.802C12.582 16.25 12.371 16.337 12.2149 16.4919L11.2069 17.4926L10.1473 18.5521C10.066 18.6335 9.93405 18.6335 9.85269 18.5521L8.79315 17.4926L7.78516 16.4919C7.62905 16.337 7.41801 16.25 7.19805 16.25H3.125C3.00995 16.25 2.91667 16.1567 2.91667 16.0417V2.29166C2.91667 2.1766 3.00995 2.08333 3.12501 2.08333Z" fill="#9EE7B2"/>
<path id="Union" d="M10.225 5.55651C10.1827 5.47088 10.0955 5.41667 10 5.41667C9.90451 5.41667 9.81731 5.47088 9.77505 5.55651L8.75212 7.62918L6.46479 7.96155C6.3703 7.97528 6.29179 8.04147 6.26229 8.13228C6.23278 8.22309 6.25739 8.32278 6.32576 8.38943L7.98089 10.0028L7.59017 12.2809C7.57403 12.375 7.61272 12.4701 7.68997 12.5262C7.76722 12.5824 7.86963 12.5898 7.95415 12.5453L10 11.4698L12.0459 12.5453C12.1304 12.5898 12.2328 12.5824 12.31 12.5262C12.3873 12.4701 12.426 12.375 12.4098 12.2809L12.0191 10.0028L13.6742 8.38943C13.7426 8.32278 13.7672 8.22309 13.7377 8.13228C13.7082 8.04147 13.6297 7.97528 13.5352 7.96155L11.2479 7.62918L10.225 5.55651Z" fill="#413368"/>
</g>
</svg>
