<svg width="20" height="20" viewBox="0 0 20 20" fill="none" xmlns="http://www.w3.org/2000/svg">
<path d="M15.8226 1.69875L16.5028 1.92548C17.0983 2.12398 17.5 2.68126 17.5 3.30897V17.7083C17.5 18.5138 16.8471 19.1667 16.0417 19.1667H3.95833C3.15292 19.1667 2.5 18.5138 2.5 17.7083V3.30897C2.5 2.68126 2.90167 2.12398 3.49717 1.92548L4.17736 1.69875H6V2.99953H14V1.69875H15.8226Z" fill="#CFC1E5"/>
<path fill-rule="evenodd" clip-rule="evenodd" d="M4.96793 2.09402C5.07708 2.42149 4.90011 2.77544 4.57264 2.88459L3.89245 3.11132C3.80738 3.13968 3.75 3.21929 3.75 3.30897V17.7083C3.75 17.8234 3.84327 17.9167 3.95833 17.9167H16.0417C16.1567 17.9167 16.25 17.8234 16.25 17.7083V3.30897C16.25 3.21929 16.1926 3.13968 16.1075 3.11132L15.4274 2.88459C15.0999 2.77544 14.9229 2.42149 15.0321 2.09402C15.1412 1.76656 15.4952 1.58958 15.8226 1.69874L16.5028 1.92547C17.0983 2.12397 17.5 2.68125 17.5 3.30897V17.7083C17.5 18.5137 16.8471 19.1667 16.0417 19.1667H3.95833C3.15292 19.1667 2.5 18.5137 2.5 17.7083V3.30897C2.5 2.68125 2.90167 2.12397 3.49717 1.92547L4.17736 1.69874C4.50482 1.58958 4.85877 1.76656 4.96793 2.09402Z" fill="#413368"/>
<path fill-rule="evenodd" clip-rule="evenodd" d="M5.83333 1.45833C5.83333 0.652918 6.48625 0 7.29167 0H12.7083C13.5137 0 14.1667 0.652918 14.1667 1.45833V2.70833C14.1667 3.51375 13.5137 4.16667 12.7083 4.16667H7.29167C6.48625 4.16667 5.83333 3.51375 5.83333 2.70833V1.45833ZM7.29167 1.25C7.17661 1.25 7.08333 1.34327 7.08333 1.45833V2.70833C7.08333 2.82339 7.17661 2.91667 7.29167 2.91667H12.7083C12.8234 2.91667 12.9167 2.82339 12.9167 2.70833V1.45833C12.9167 1.34327 12.8234 1.25 12.7083 1.25H7.29167Z" fill="#413368"/>
<path fill-rule="evenodd" clip-rule="evenodd" d="M6.0415 7.91667C6.0415 7.57149 6.32133 7.29167 6.6665 7.29167H13.3332C13.6783 7.29167 13.9582 7.57149 13.9582 7.91667C13.9582 8.26185 13.6783 8.54167 13.3332 8.54167H6.6665C6.32133 8.54167 6.0415 8.26185 6.0415 7.91667Z" fill="#413368"/>
<path fill-rule="evenodd" clip-rule="evenodd" d="M6.0415 11.25C6.0415 10.9048 6.32133 10.625 6.6665 10.625H13.3332C13.6783 10.625 13.9582 10.9048 13.9582 11.25C13.9582 11.5952 13.6783 11.875 13.3332 11.875H6.6665C6.32133 11.875 6.0415 11.5952 6.0415 11.25Z" fill="#413368"/>
<path fill-rule="evenodd" clip-rule="evenodd" d="M6.24984 14.5833C6.24984 14.2382 6.52966 13.9583 6.87484 13.9583H10.2082C10.5533 13.9583 10.8332 14.2382 10.8332 14.5833C10.8332 14.9285 10.5533 15.2083 10.2082 15.2083H6.87484C6.52966 15.2083 6.24984 14.9285 6.24984 14.5833Z" fill="#413368"/>
</svg>
