<svg width="20" height="20" viewBox="0 0 20 20" fill="none" xmlns="http://www.w3.org/2000/svg">
<path fill-rule="evenodd" clip-rule="evenodd" d="M0.339666 12.6082C-0.0933988 11.8582 0.120255 10.9014 0.831267 10.4067L14.1986 1.10762C14.9871 0.559142 16.0747 0.788809 16.5741 1.60923L18.9298 5.47947C19.4439 6.32403 19.1139 7.42785 18.2207 7.85175L3.41892 14.8764C2.63428 15.2487 1.69522 14.9562 1.26097 14.204L0.339666 12.6082Z" fill="#9CCBFE"/>
<path d="M14.2957 19.0587C14.5863 18.8724 14.6708 18.4858 14.4845 18.1952L11.1511 12.9962C10.9835 12.7346 10.6492 12.636 10.3663 12.7645L8.07468 13.8062C7.96646 13.8554 7.87451 13.9344 7.80963 14.034L5.10134 18.1914C4.91293 18.4807 4.99466 18.8678 5.28389 19.0563C5.57311 19.2447 5.96031 19.1629 6.14872 18.8737L8.75766 14.8688L9.18304 14.6755V19.3752C9.18304 19.7203 9.46286 20.0002 9.80804 20.0002C10.1532 20.0002 10.433 19.7203 10.433 19.3752V14.1921L13.4322 18.8698C13.6185 19.1604 14.0051 19.245 14.2957 19.0587Z" fill="#9CCBFE"/>
<path fill-rule="evenodd" clip-rule="evenodd" d="M0.339666 12.6082C-0.0933988 11.8582 0.120255 10.9014 0.831267 10.4067L14.1986 1.10762C14.9871 0.559142 16.0747 0.788809 16.5741 1.60923L18.9298 5.47947C19.4439 6.32403 19.114 7.42785 18.2207 7.85175L3.41892 14.8764C2.63428 15.2487 1.69522 14.9562 1.26097 14.204L0.339666 12.6082ZM4.72623 9.21989L11.261 4.67393L13.6414 8.64136L6.38144 12.0868L4.72623 9.21989ZM3.69645 9.93626L1.5451 11.4329C1.36734 11.5565 1.31393 11.7957 1.4222 11.9832L2.3435 13.579C2.45206 13.767 2.68683 13.8402 2.88299 13.7471L5.24849 12.6245L3.69645 9.93626ZM14.7761 8.10288L12.2895 3.95847L14.9125 2.13375C15.1096 1.99663 15.3815 2.05405 15.5063 2.25915L17.8621 6.1294C17.9906 6.34054 17.9081 6.61649 17.6848 6.72247L14.7761 8.10288Z" fill="#413368"/>
<path d="M14.2957 19.0587C14.5863 18.8724 14.6708 18.4858 14.4845 18.1952L11.1511 12.9962C10.9835 12.7346 10.6492 12.636 10.3663 12.7645L8.07468 13.8062C7.96646 13.8554 7.87451 13.9344 7.80963 14.034L5.10134 18.1914C4.91293 18.4807 4.99466 18.8678 5.28389 19.0563C5.57311 19.2447 5.96031 19.1629 6.14872 18.8737L8.75766 14.8688L9.18304 14.6755V19.3752C9.18304 19.7203 9.46286 20.0002 9.80804 20.0002C10.1532 20.0002 10.433 19.7203 10.433 19.3752V14.1921L13.4322 18.8698C13.6185 19.1604 14.0051 19.245 14.2957 19.0587Z" fill="#413368"/>
</svg>
