<svg width="20" height="20" viewBox="0 0 20 20" fill="none" xmlns="http://www.w3.org/2000/svg">
<path d="M15.4169 7.50001C15.4169 10.4916 12.9918 12.9167 10.0002 12.9167C7.00869 12.9167 4.58357 10.4916 4.58357 7.50001C4.58357 4.50847 7.00869 2.08334 10.0002 2.08334C12.9918 2.08334 15.4169 4.50847 15.4169 7.50001Z" fill="#C0C9FD"/>
<path d="M6.02461 15.961L4.28467 16.5496L5.41323 12.3378C6.34049 13.2173 7.52039 13.833 8.83277 14.0648L7.90689 17.5202L6.69436 16.1405C6.5278 15.951 6.26362 15.8802 6.02461 15.961Z" fill="#C0C9FD"/>
<path d="M13.3107 16.1406L12.0982 17.5203L11.1721 14.064C12.4845 13.8313 13.6641 13.2147 14.5909 12.3343L15.7204 16.5497L13.9805 15.9611C13.7415 15.8802 13.4773 15.951 13.3107 16.1406Z" fill="#C0C9FD"/>
<path fill-rule="evenodd" clip-rule="evenodd" d="M8.35031 19.4186C8.57475 19.3662 8.75211 19.1944 8.81177 18.9718L10.0023 14.5288L11.1928 18.9718C11.2524 19.1945 11.4298 19.3662 11.6542 19.4187C11.8787 19.4711 12.1138 19.3958 12.266 19.2226L13.9743 17.2787L16.4258 18.108C16.6442 18.1819 16.8854 18.1296 17.0536 17.9719C17.2217 17.8143 17.2895 17.5769 17.2298 17.3542L15.5709 11.1632C16.2636 10.1119 16.6666 8.85305 16.6666 7.50001C16.6666 3.81811 13.6819 0.833344 9.99996 0.833344C6.31806 0.833344 3.33329 3.81811 3.33329 7.50001C3.33329 8.85518 3.73764 10.1159 4.43227 11.1681L2.77473 17.3542C2.71507 17.5768 2.7828 17.8142 2.95095 17.9719C3.1191 18.1295 3.36037 18.1818 3.57872 18.108L6.0302 17.2786L7.7386 19.2226C7.89075 19.3957 8.12586 19.4711 8.35031 19.4186ZM4.28439 16.5496L6.02433 15.961C6.26334 15.8802 6.52752 15.951 6.69408 16.1405L7.90662 17.5202L8.83249 14.0648C7.52011 13.833 6.34022 13.2173 5.41296 12.3378L4.28439 16.5496ZM12.0979 17.5203L13.3105 16.1406C13.477 15.951 13.7412 15.8802 13.9802 15.9611L15.7202 16.5497L14.5906 12.3343C13.6639 13.2147 12.4842 13.8313 11.1718 14.064L12.0979 17.5203ZM9.99996 12.9167C12.9915 12.9167 15.4166 10.4916 15.4166 7.50001C15.4166 4.50847 12.9915 2.08334 9.99996 2.08334C7.00842 2.08334 4.58329 4.50847 4.58329 7.50001C4.58329 10.4916 7.00842 12.9167 9.99996 12.9167Z" fill="#413368"/>
<path fill-rule="evenodd" clip-rule="evenodd" d="M9.99992 8.45172C9.84771 8.35249 9.66536 8.22289 9.48562 8.06987C9.27846 7.89351 9.08019 7.69052 8.93972 7.47613C8.80163 7.26538 8.74992 7.09157 8.74992 6.94528C8.74992 6.85997 8.78222 6.79056 8.83476 6.73803C8.89333 6.67946 8.95123 6.66668 8.97456 6.66668C9.01913 6.66668 9.05038 6.67457 9.07377 6.68395C9.09819 6.69376 9.12517 6.70978 9.15372 6.73604L9.71785 7.2549C9.8773 7.40156 10.1225 7.40156 10.282 7.2549L10.8461 6.73604C10.8747 6.70978 10.9016 6.69376 10.9261 6.68395C10.9495 6.67457 10.9807 6.66668 11.0253 6.66668C11.0486 6.66668 11.1065 6.67946 11.1651 6.73803C11.2176 6.79056 11.2499 6.85997 11.2499 6.94528C11.2499 7.09156 11.1982 7.26538 11.0601 7.47613C10.9196 7.69052 10.7214 7.89351 10.5142 8.06987C10.3345 8.22289 10.1521 8.35249 9.99992 8.45172ZM9.77003 9.76747L9.76831 9.76658C9.73314 9.74828 9.69937 9.72968 9.66764 9.71186C9.60699 9.67779 9.52205 9.6284 9.42086 9.56504C9.21954 9.43899 8.94868 9.25439 8.67531 9.02166C8.15945 8.58248 7.49992 7.85841 7.49992 6.94528C7.49992 6.07372 8.21093 5.41668 8.97456 5.41668C9.38174 5.41668 9.73203 5.56962 9.99992 5.81601C10.2678 5.56962 10.6181 5.41668 11.0253 5.41668C11.7889 5.41668 12.4999 6.07372 12.4999 6.94528C12.4999 7.85841 11.8404 8.58248 11.3245 9.02166C11.0512 9.25439 10.7803 9.43899 10.579 9.56504C10.4778 9.6284 10.3929 9.67779 10.3322 9.71186C10.2991 9.73045 10.2661 9.74831 10.2334 9.76559L10.2303 9.7672C10.086 9.8413 9.91433 9.84157 9.77003 9.76747Z" fill="#413368"/>
</svg>
