<svg width="24" height="24" viewBox="0 0 24 24" fill="none" xmlns="http://www.w3.org/2000/svg">
<path fill-rule="evenodd" clip-rule="evenodd" d="M5.56977 5.56965C5.86266 5.27675 6.33753 5.27675 6.63043 5.56965L11.6001 10.5393L16.5698 5.56965C16.8627 5.27675 17.3375 5.27675 17.6304 5.56965C17.9233 5.86254 17.9233 6.33741 17.6304 6.63031L12.6608 11.6L17.6304 16.5696C17.9233 16.8625 17.9233 17.3374 17.6304 17.6303C17.3375 17.9232 16.8627 17.9232 16.5698 17.6303L11.6001 12.6606L6.63043 17.6303C6.33753 17.9232 5.86266 17.9232 5.56977 17.6303C5.27687 17.3374 5.27687 16.8625 5.56977 16.5696L10.5394 11.6L5.56977 6.63031C5.27687 6.33741 5.27687 5.86254 5.56977 5.56965Z" fill="#334E68"/>
</svg>
