<svg width="20" height="20" viewBox="0 0 20 20" fill="none" xmlns="http://www.w3.org/2000/svg">
<path d="M2.5 3.54171C2.5 3.42665 2.59327 3.33337 2.70833 3.33337H17.2917C17.4067 3.33337 17.5 3.42665 17.5 3.54171V13.9584C17.5 14.0734 17.4067 14.1667 17.2917 14.1667H8.95833C8.79257 14.1667 8.6336 14.2326 8.51639 14.3498L5.41667 17.4495V14.7917C5.41667 14.4465 5.13684 14.1667 4.79167 14.1667H2.70833C2.59327 14.1667 2.5 14.0734 2.5 13.9584V3.54171Z" fill="#FFB8D2"/>
<path fill-rule="evenodd" clip-rule="evenodd" d="M2.70833 3.33337C2.59327 3.33337 2.5 3.42665 2.5 3.54171V13.9584C2.5 14.0734 2.59327 14.1667 2.70833 14.1667H4.79167C5.13684 14.1667 5.41667 14.4465 5.41667 14.7917V17.4495L8.51639 14.3498C8.6336 14.2326 8.79257 14.1667 8.95833 14.1667H17.2917C17.4067 14.1667 17.5 14.0734 17.5 13.9584V3.54171C17.5 3.42665 17.4067 3.33337 17.2917 3.33337H2.70833ZM1.25 3.54171C1.25 2.73629 1.90292 2.08337 2.70833 2.08337H17.2917C18.0971 2.08337 18.75 2.73629 18.75 3.54171V13.9584C18.75 14.7638 18.0971 15.4167 17.2917 15.4167H9.21722L6.23953 18.3944C6.01181 18.6221 5.70296 18.75 5.38092 18.75C4.71031 18.75 4.16667 18.2064 4.16667 17.5358V15.4167H2.70833C1.90292 15.4167 1.25 14.7638 1.25 13.9584V3.54171Z" fill="#413368"/>
</svg>
