<svg width="20" height="20" viewBox="0 0 20 20" fill="none" xmlns="http://www.w3.org/2000/svg">
<g style="mix-blend-mode:multiply">
<path d="M10.0002 2.08337C6.82516 2.08337 4.5835 4.36921 4.5835 7.18254C4.5835 8.46254 5.11016 9.32587 5.771 10.1492C5.91332 10.3271 6.05811 10.4984 6.207 10.6746L6.21016 10.6784L6.29016 10.7717L6.29715 10.78C6.46997 10.9858 6.64825 11.198 6.81516 11.4167C7.15183 11.8592 7.46766 12.3567 7.64433 12.945C7.6876 13.1024 7.66762 13.2704 7.58865 13.4132C7.50969 13.556 7.37801 13.6623 7.22175 13.7093C7.06549 13.7563 6.89704 13.7403 6.7524 13.6648L7.10819 15.0276C7.16716 15.0095 7.22901 15 7.29183 15H12.7085C12.7724 15 12.8354 15.0098 12.8953 15.0286L13.25 13.6757C13.104 13.7542 12.9327 13.7715 12.7739 13.7238C12.6151 13.6761 12.4818 13.5672 12.4033 13.4211C12.3247 13.2751 12.3074 13.1038 12.3552 12.945C12.5327 12.3567 12.8485 11.8592 13.186 11.4167C13.3543 11.195 13.5352 10.98 13.711 10.7717L13.7902 10.6784L13.7937 10.6742C13.9425 10.4982 14.0871 10.327 14.2293 10.15C14.8902 9.32504 15.4168 8.46254 15.4168 7.18254C15.4168 4.36921 13.1752 2.08337 10.0002 2.08337Z" fill="#FFECB0"/>
<path d="M7.91683 18.125C7.91683 17.9593 7.98268 17.8003 8.09989 17.6831C8.2171 17.5659 8.37607 17.5 8.54183 17.5H11.4585C11.6243 17.5 11.7832 17.5659 11.9004 17.6831C12.0176 17.8003 12.0835 17.9593 12.0835 18.125L12.5751 16.25H7.42733L7.91683 18.125Z" fill="#FFECB0"/>
<path fill-rule="evenodd" clip-rule="evenodd" d="M8.09989 17.6831C7.98268 17.8003 7.91683 17.9593 7.91683 18.125C7.91683 18.2908 7.98268 18.4498 8.09989 18.567C8.2171 18.6842 8.37607 18.75 8.54183 18.75H11.4585C11.6243 18.75 11.7832 18.6842 11.9004 18.567C12.0176 18.4498 12.0835 18.2908 12.0835 18.125C12.0835 17.9593 12.0176 17.8003 11.9004 17.6831C11.7832 17.5659 11.6243 17.5 11.4585 17.5H8.54183C8.37607 17.5 8.2171 17.5659 8.09989 17.6831ZM7.10819 15.0276C7.16716 15.0095 7.22901 15 7.29183 15H12.7085C12.7724 15 12.8354 15.0098 12.8953 15.0286L12.5751 16.25H7.42733L7.10819 15.0276Z" fill="#FFECB0"/>
<path fill-rule="evenodd" clip-rule="evenodd" d="M10.0002 2.08337C6.82516 2.08337 4.5835 4.36921 4.5835 7.18254C4.5835 8.46254 5.11016 9.32587 5.771 10.1492C5.91433 10.3284 6.06016 10.5009 6.21016 10.6784L6.29016 10.7717C6.46516 10.98 6.646 11.195 6.81516 11.4167C7.15183 11.8592 7.46766 12.3567 7.64433 12.945C7.6876 13.1024 7.66762 13.2704 7.58865 13.4132C7.50969 13.556 7.37801 13.6623 7.22175 13.7093C7.06549 13.7563 6.89704 13.7403 6.7524 13.6648C6.60775 13.5892 6.49839 13.4601 6.44766 13.305C6.33266 12.9217 6.11683 12.5634 5.82016 12.1742C5.6635 11.9718 5.50178 11.7735 5.33516 11.5792L5.2585 11.4875C5.1085 11.3109 4.95016 11.1242 4.796 10.9317C4.0585 10.0134 3.3335 8.87587 3.3335 7.18171C3.3335 3.63587 6.17933 0.833374 10.0002 0.833374C13.821 0.833374 16.6668 3.63504 16.6668 7.18254C16.6668 8.87587 15.9418 10.0134 15.2043 10.9325C15.0502 11.1242 14.8918 11.3109 14.7418 11.4884L14.6652 11.5792C14.4902 11.7859 14.3277 11.98 14.1802 12.1742C13.8835 12.5634 13.6677 12.9225 13.5527 13.305C13.5049 13.4638 13.3961 13.5972 13.25 13.6757C13.104 13.7542 12.9327 13.7715 12.7739 13.7238C12.6151 13.6761 12.4818 13.5672 12.4033 13.4211C12.3247 13.2751 12.3074 13.1038 12.3552 12.945C12.5327 12.3567 12.8485 11.8592 13.186 11.4167C13.3543 11.195 13.5352 10.98 13.711 10.7717L13.7902 10.6784C13.9402 10.5009 14.086 10.3284 14.2293 10.15C14.8902 9.32504 15.4168 8.46254 15.4168 7.18254C15.4168 4.36921 13.1752 2.08337 10.0002 2.08337ZM7.91683 18.125C7.91683 17.9593 7.98268 17.8003 8.09989 17.6831C8.2171 17.5659 8.37607 17.5 8.54183 17.5H11.4585C11.6243 17.5 11.7832 17.5659 11.9004 17.6831C12.0176 17.8003 12.0835 17.9593 12.0835 18.125C12.0835 18.2908 12.0176 18.4498 11.9004 18.567C11.7832 18.6842 11.6243 18.75 11.4585 18.75H8.54183C8.37607 18.75 8.2171 18.6842 8.09989 18.567C7.98268 18.4498 7.91683 18.2908 7.91683 18.125ZM7.29183 15C7.12607 15 6.9671 15.0659 6.84989 15.1831C6.73268 15.3003 6.66683 15.4593 6.66683 15.625C6.66683 15.7908 6.73268 15.9498 6.84989 16.067C6.9671 16.1842 7.12607 16.25 7.29183 16.25H12.7085C12.8743 16.25 13.0332 16.1842 13.1504 16.067C13.2676 15.9498 13.3335 15.7908 13.3335 15.625C13.3335 15.4593 13.2676 15.3003 13.1504 15.1831C13.0332 15.0659 12.8743 15 12.7085 15H7.29183Z" fill="#413368"/>
</g>
</svg>
