<svg width="24" height="24" viewBox="0 0 24 24" fill="none" xmlns="http://www.w3.org/2000/svg">
<path d="M7.96429 3.38095C7.96429 1.65245 9.36674 0.25 11.0952 0.25C12.8237 0.25 14.2262 1.65245 14.2262 3.38095V3.55952C14.2262 3.83567 14.45 4.05952 14.7262 4.05952H17.2857C18.7475 4.05952 19.9405 5.25245 19.9405 6.71429V9.27381C19.9405 9.54995 20.1643 9.77381 20.4405 9.77381H20.619C22.3475 9.77381 23.75 11.1763 23.75 12.9048C23.75 14.6333 22.3475 16.0357 20.619 16.0357H20.4405C20.1643 16.0357 19.9405 16.2596 19.9405 16.5357V19.0952C19.9405 20.5571 18.7475 21.75 17.2857 21.75H13.4167C13.1405 21.75 12.9167 21.5261 12.9167 21.25V19.5714C12.9167 18.5666 12.1001 17.75 11.0952 17.75C10.0904 17.75 9.27381 18.5666 9.27381 19.5714V21.25C9.27381 21.5261 9.04995 21.75 8.77381 21.75H4.90476C3.44293 21.75 2.25 20.5571 2.25 19.0952V15.2262C2.25 14.95 2.47386 14.7262 2.75 14.7262H4.42857C5.43341 14.7262 6.25 13.9096 6.25 12.9048C6.25 11.8999 5.43341 11.0833 4.42857 11.0833H2.75952C2.48338 11.0833 2.25952 10.8595 2.25952 10.5833V6.71429C2.25952 5.25735 3.43804 4.05952 4.90476 4.05952H7.46429C7.74043 4.05952 7.96429 3.83567 7.96429 3.55952V3.38095Z" fill="#9CCBFE"/>
<path fill-rule="evenodd" clip-rule="evenodd" d="M7.96429 3.38095C7.96429 1.65245 9.36674 0.25 11.0952 0.25C12.8237 0.25 14.2262 1.65245 14.2262 3.38095V3.55952C14.2262 3.83567 14.45 4.05952 14.7262 4.05952H17.2857C18.7475 4.05952 19.9405 5.25245 19.9405 6.71429V9.27381C19.9405 9.54995 20.1643 9.77381 20.4405 9.77381H20.619C22.3475 9.77381 23.75 11.1763 23.75 12.9048C23.75 14.6333 22.3475 16.0357 20.619 16.0357H20.4405C20.1643 16.0357 19.9405 16.2596 19.9405 16.5357V19.0952C19.9405 20.5571 18.7475 21.75 17.2857 21.75H13.4167C13.1405 21.75 12.9167 21.5261 12.9167 21.25V19.5714C12.9167 18.5666 12.1001 17.75 11.0952 17.75C10.0904 17.75 9.27381 18.5666 9.27381 19.5714V21.25C9.27381 21.5261 9.04995 21.75 8.77381 21.75H4.90476C3.44293 21.75 2.25 20.5571 2.25 19.0952V15.2262C2.25 14.95 2.47386 14.7262 2.75 14.7262H4.42857C5.43341 14.7262 6.25 13.9096 6.25 12.9048C6.25 11.8999 5.43341 11.0833 4.42857 11.0833H2.75952C2.48338 11.0833 2.25952 10.8595 2.25952 10.5833V6.71429C2.25952 5.25735 3.43804 4.05952 4.90476 4.05952H7.46429C7.74043 4.05952 7.96429 3.83567 7.96429 3.55952V3.38095ZM11.0952 1.75C10.1952 1.75 9.46429 2.48088 9.46429 3.38095V5.05952C9.46429 5.33567 9.24043 5.55952 8.96429 5.55952H4.90476C4.27624 5.55952 3.75952 6.07598 3.75952 6.71429V9.08333C3.75952 9.35948 3.98338 9.58333 4.25952 9.58333H4.42857C6.26183 9.58333 7.75 11.0715 7.75 12.9048C7.75 14.738 6.26183 16.2262 4.42857 16.2262H4.25C3.97386 16.2262 3.75 16.45 3.75 16.7262V19.0952C3.75 19.7286 4.27136 20.25 4.90476 20.25H7.27381C7.54995 20.25 7.77381 20.0261 7.77381 19.75V19.5714C7.77381 17.7382 9.26198 16.25 11.0952 16.25C12.9285 16.25 14.4167 17.7382 14.4167 19.5714V19.75C14.4167 20.0261 14.6405 20.25 14.9167 20.25H17.2857C17.9191 20.25 18.4405 19.7286 18.4405 19.0952V15.0357C18.4405 14.7596 18.6643 14.5357 18.9405 14.5357H20.619C21.5191 14.5357 22.25 13.8048 22.25 12.9048C22.25 12.0047 21.5191 11.2738 20.619 11.2738H18.9405C18.6643 11.2738 18.4405 11.05 18.4405 10.7738V6.71429C18.4405 6.08088 17.9191 5.55952 17.2857 5.55952H13.2262C12.95 5.55952 12.7262 5.33567 12.7262 5.05952V3.38095C12.7262 2.48088 11.9953 1.75 11.0952 1.75Z" fill="#413368"/>
</svg>
