<svg width="34" height="34" viewBox="0 0 34 34" fill="none" xmlns="http://www.w3.org/2000/svg">
<mask id="mask0_243_48" style="mask-type:luminance" maskUnits="userSpaceOnUse" x="0" y="0" width="34" height="34">
<rect x="0.552856" y="0.5" width="32.7692" height="33" fill="white"/>
</mask>
<g mask="url(#mask0_243_48)">
<path d="M5.79729 3.58995L28.0777 26.0272C29.2774 27.2354 29.2774 29.1943 28.0777 30.4024C27.5015 30.9826 26.7201 31.3086 25.9053 31.3086H3.62497C1.92829 31.3086 0.552856 29.9235 0.552856 28.2148L0.552856 5.77756C0.552856 4.06893 1.92829 2.68381 3.62497 2.68381C4.43975 2.68381 5.22115 3.00976 5.79729 3.58995Z" fill="#A0D674"/>
<g style="mix-blend-mode:multiply">
<path d="M5.79729 30.41L28.0777 7.97275C29.2774 6.76456 29.2774 4.80571 28.0777 3.59752C27.5015 3.01733 26.7201 2.69139 25.9053 2.69139L3.62497 2.69139C1.92829 2.69139 0.552856 4.07651 0.552856 5.78514L0.552856 28.2224C0.552856 29.931 1.92829 31.3162 3.62497 31.3162C4.43975 31.3162 5.22115 30.9902 5.79729 30.41Z" fill="#3CB5B5"/>
</g>
<path d="M33.322 11.4532V22.5467C33.322 23.4011 32.6342 24.0936 31.7859 24.0936C31.3785 24.0936 30.9878 23.9306 30.6997 23.6405L25.1918 18.0938C24.5919 17.4897 24.5919 16.5103 25.1918 15.9062L30.6997 10.3594C31.2996 9.75532 32.2722 9.75532 32.8721 10.3594C33.1601 10.6495 33.322 11.043 33.322 11.4532Z" fill="#F97060"/>
</g>
</svg>
