<svg width="20" height="20" viewBox="0 0 20 20" fill="none" xmlns="http://www.w3.org/2000/svg">
<path d="M10.8333 6.25001C10.8333 6.71025 10.4602 7.08334 9.99998 7.08334C9.53974 7.08334 9.16665 6.71025 9.16665 6.25001C9.16665 5.78977 9.53974 5.41668 9.99998 5.41668C10.4602 5.41668 10.8333 5.78977 10.8333 6.25001Z" fill="#4C516D"/>
<path d="M8.33331 9.37501C8.33331 9.02983 8.61313 8.75001 8.95831 8.75001H10.2083C10.5535 8.75001 10.8333 9.02983 10.8333 9.37501V12.9167H11.4583C11.8035 12.9167 12.0833 13.1965 12.0833 13.5417C12.0833 13.8869 11.8035 14.1667 11.4583 14.1667H8.95831C8.61313 14.1667 8.33331 13.8869 8.33331 13.5417C8.33331 13.1965 8.61313 12.9167 8.95831 12.9167H9.58331V10H8.95831C8.61313 10 8.33331 9.72019 8.33331 9.37501Z" fill="#4C516D"/>
<path fill-rule="evenodd" clip-rule="evenodd" d="M9.99998 0.833344C4.93737 0.833344 0.833313 4.9374 0.833313 10C0.833313 15.0626 4.93737 19.1667 9.99998 19.1667C15.0626 19.1667 19.1666 15.0626 19.1666 10C19.1666 4.9374 15.0626 0.833344 9.99998 0.833344ZM2.08331 10C2.08331 5.62776 5.62773 2.08334 9.99998 2.08334C14.3722 2.08334 17.9166 5.62776 17.9166 10C17.9166 14.3723 14.3722 17.9167 9.99998 17.9167C5.62773 17.9167 2.08331 14.3723 2.08331 10Z" fill="#4C516D"/>
</svg>
