<svg width="20" height="20" viewBox="0 0 20 20" fill="none" xmlns="http://www.w3.org/2000/svg">
<path d="M1.42791 9.42338C1.74691 9.29152 2.1124 9.44322 2.24426 9.76222C3.45657 12.695 6.46068 14.7926 10 14.7926C13.5393 14.7926 16.5434 12.695 17.7557 9.76222C17.8876 9.44322 18.2531 9.29152 18.5721 9.42338C18.8911 9.55525 19.0428 9.92074 18.9109 10.2397C18.4162 11.4366 17.6678 12.5085 16.7302 13.3955L18.8099 15.8466C19.0332 16.1098 19.0009 16.5042 18.7377 16.7275C18.4745 16.9509 18.0801 16.9185 17.8568 16.6553L15.7675 14.193C14.9798 14.763 14.0977 15.2188 13.1482 15.5353L13.5354 18.2459C13.5842 18.5876 13.3468 18.9042 13.0051 18.953C12.6633 19.0018 12.3468 18.7644 12.2979 18.4227L11.9313 15.8559C11.3072 15.9784 10.6613 16.0426 10 16.0426C9.33875 16.0426 8.69281 15.9784 8.06873 15.8559L7.70205 18.4227C7.65324 18.7644 7.33665 19.0018 6.99495 18.953C6.65324 18.9042 6.4158 18.5876 6.46462 18.2459L6.85185 15.5353C5.90233 15.2188 5.02021 14.763 4.23245 14.193L2.14324 16.6553C1.91991 16.9185 1.52551 16.9509 1.26231 16.7275C0.999106 16.5042 0.966777 16.1098 1.1901 15.8466L3.26982 13.3955C2.33218 12.5085 1.58382 11.4366 1.08907 10.2397C0.957207 9.92074 1.10891 9.55525 1.42791 9.42338Z" fill="#4C516D"/>
</svg>
