<svg width="20" height="20" viewBox="0 0 20 20" fill="none" xmlns="http://www.w3.org/2000/svg">
<g id="icon/location">
<path id="Union" d="M4.99133 3.74133C7.75755 0.975113 12.2425 0.975113 15.0087 3.74133C17.7749 6.50752 17.7749 10.9925 15.0087 13.7587L10.5061 18.2614C10.2266 18.5408 9.77354 18.5408 9.49409 18.2614L5.01272 13.78L5.01102 13.7783L4.99133 13.7587C2.22512 10.9925 2.22512 6.50754 4.99133 3.74133Z" fill="#FFB8D2"/>
<g id="Union_2">
<path d="M10 11.25C11.1506 11.25 12.0833 10.3173 12.0833 9.16667C12.0833 8.01607 11.1506 7.08333 10 7.08333C8.84941 7.08333 7.91667 8.01607 7.91667 9.16667C7.91667 10.3173 8.84941 11.25 10 11.25Z" fill="#413368"/>
<path fill-rule="evenodd" clip-rule="evenodd" d="M15.8926 2.85744C12.6382 -0.396926 7.36182 -0.396926 4.10745 2.85744C0.853079 6.11181 0.853079 11.3882 4.10745 14.6426L4.13053 14.6656L8.6102 19.1452C9.37781 19.9128 10.6223 19.9128 11.39 19.1452L15.8926 14.6426C19.1469 11.3882 19.1469 6.11179 15.8926 2.85744ZM4.99133 3.74133C7.75755 0.975113 12.2425 0.975113 15.0087 3.74133C17.7749 6.50753 17.7749 10.9925 15.0087 13.7587L10.5061 18.2614C10.2266 18.5408 9.77354 18.5408 9.49409 18.2614L5.01272 13.78L5.01102 13.7783L4.99133 13.7587C2.22512 10.9925 2.22512 6.50754 4.99133 3.74133Z" fill="#413368"/>
</g>
</g>
</svg>
