<svg width="24" height="24" viewBox="0 0 24 24" fill="none" xmlns="http://www.w3.org/2000/svg">
<path d="M2.75 3.25C2.75 2.2835 3.5335 1.5 4.5 1.5H10C10.4142 1.5 10.75 1.83579 10.75 2.25C10.75 2.66421 10.4142 3 10 3H4.5C4.36193 3 4.25 3.11193 4.25 3.25V20.75C4.25 20.8881 4.36193 21 4.5 21H10C10.4142 21 10.75 21.3358 10.75 21.75C10.75 22.1642 10.4142 22.5 10 22.5H4.5C3.5335 22.5 2.75 21.7165 2.75 20.75V3.25Z" fill="#4C516D"/>
<path d="M18.7564 12.75L15.4555 16.2342C15.1707 16.5349 15.1835 17.0096 15.4842 17.2945C15.7849 17.5793 16.2596 17.5665 16.5445 17.2658L21.0445 12.5158C21.3185 12.2265 21.3185 11.7735 21.0445 11.4842L16.5445 6.73419C16.2596 6.43349 15.7849 6.42066 15.4842 6.70554C15.1835 6.99041 15.1707 7.46511 15.4555 7.76581L18.7563 11.25H10.5C10.0858 11.25 9.75 11.5858 9.75 12C9.75 12.4142 10.0858 12.75 10.5 12.75H18.7564Z" fill="#4C516D"/>
</svg>
