<svg width="20" height="20" viewBox="0 0 20 20" fill="none" xmlns="http://www.w3.org/2000/svg">
<path fill-rule="evenodd" clip-rule="evenodd" d="M0.833496 2.49996C0.833496 2.03972 1.20659 1.66663 1.66683 1.66663H8.3335C8.79373 1.66663 9.16683 2.03972 9.16683 2.49996V4.37496H14.1668C14.9722 4.37496 15.6252 5.02788 15.6252 5.83329V8.33329H18.3335C18.7937 8.33329 19.1668 8.70639 19.1668 9.16663V14.1666C19.1668 14.6269 18.7937 15 18.3335 15H11.6668C11.2066 15 10.8335 14.6269 10.8335 14.1666V9.16663C10.8335 8.70639 11.2066 8.33329 11.6668 8.33329H14.3752V5.83329C14.3752 5.71823 14.2819 5.62496 14.1668 5.62496H9.16683V7.49996C9.16683 7.9602 8.79373 8.33329 8.3335 8.33329H5.62516V11.6666H8.3335C8.79373 11.6666 9.16683 12.0397 9.16683 12.5V17.5C9.16683 17.9602 8.79373 18.3333 8.3335 18.3333H1.66683C1.20659 18.3333 0.833496 17.9602 0.833496 17.5V12.5C0.833496 12.0397 1.20659 11.6666 1.66683 11.6666H4.37516V8.33329H1.66683C1.20659 8.33329 0.833496 7.9602 0.833496 7.49996V2.49996ZM2.0835 2.91663V7.08329H7.91683V2.91663H2.0835ZM2.0835 12.9166V17.0833H7.91683V12.9166H2.0835ZM12.0835 9.58329V13.75H17.9168V9.58329H12.0835Z" fill="#413368"/>
<path d="M2.0835 7.08329V2.91663H7.91683V7.08329H2.0835Z" fill="#9EE7B2"/>
<path d="M2.0835 17.0833V12.9166H7.91683V17.0833H2.0835Z" fill="#9EE7B2"/>
<path d="M12.0835 13.75V9.58329H17.9168V13.75H12.0835Z" fill="#9EE7B2"/>
</svg>
