<svg width="20" height="20" viewBox="0 0 20 20" fill="none" xmlns="http://www.w3.org/2000/svg">
<path fill-rule="evenodd" clip-rule="evenodd" d="M1.45833 2.5C0.652918 2.5 0 3.15292 0 3.95833V16.0417C0 16.8471 0.652918 17.5 1.45833 17.5H18.5417C19.3471 17.5 20 16.8471 20 16.0417V3.95833C20 3.15292 19.3471 2.5 18.5417 2.5H1.45833Z" fill="#FFECB0"/>
<path d="M12.7083 11.6667C12.3632 11.6667 12.0833 11.9465 12.0833 12.2917C12.0833 12.6368 12.3632 12.9167 12.7083 12.9167H15.625C15.9702 12.9167 16.25 12.6368 16.25 12.2917C16.25 11.9465 15.9702 11.6667 15.625 11.6667H12.7083Z" fill="#413368"/>
<path fill-rule="evenodd" clip-rule="evenodd" d="M1.45833 2.5C0.652918 2.5 0 3.15292 0 3.95833V16.0417C0 16.8471 0.652918 17.5 1.45833 17.5H18.5417C19.3471 17.5 20 16.8471 20 16.0417V3.95833C20 3.15292 19.3471 2.5 18.5417 2.5H1.45833ZM1.25 3.95833C1.25 3.84327 1.34327 3.75 1.45833 3.75H18.5417C18.6567 3.75 18.75 3.84327 18.75 3.95833V7.08333H1.25V3.95833ZM1.25 8.33333V16.0417C1.25 16.1567 1.34327 16.25 1.45833 16.25H18.5417C18.6567 16.25 18.75 16.1567 18.75 16.0417V8.33333H1.25Z" fill="#413368"/>
</svg>
