<svg width="20" height="20" viewBox="0 0 20 20" fill="none" xmlns="http://www.w3.org/2000/svg">
<path d="M0 3.125C0 2.77982 0.279822 2.5 0.625 2.5H6.87239C8.17752 2.5 9.32703 3.16676 9.9987 4.17834C10.6703 3.16681 11.8198 2.5 13.125 2.5H19.375C19.7202 2.5 20 2.77982 20 3.125V15.6771C20 15.8436 19.9336 16.0032 19.8154 16.1205C19.6973 16.2379 19.5373 16.3032 19.3708 16.3021L12.9692 16.2588C12.3003 16.2543 11.6575 16.518 11.1846 16.991L10.4419 17.7336C10.1979 17.9777 9.80214 17.9777 9.55806 17.7336L8.80668 16.9822C8.33784 16.5134 7.70196 16.25 7.03892 16.25H0.625C0.279822 16.25 0 15.9702 0 15.625V3.125Z" fill="#9EE7B2"/>
<path fill-rule="evenodd" clip-rule="evenodd" d="M13.125 7.08333C13.125 6.73815 13.4048 6.45833 13.75 6.45833H15.8333C16.1785 6.45833 16.4583 6.73815 16.4583 7.08333C16.4583 7.42851 16.1785 7.70833 15.8333 7.70833H13.75C13.4048 7.70833 13.125 7.42851 13.125 7.08333ZM13.125 9.58333C13.125 9.23815 13.4048 8.95833 13.75 8.95833H15.8333C16.1785 8.95833 16.4583 9.23815 16.4583 9.58333C16.4583 9.92851 16.1785 10.2083 15.8333 10.2083H13.75C13.4048 10.2083 13.125 9.92851 13.125 9.58333ZM13.125 12.0833C13.125 11.7382 13.4048 11.4583 13.75 11.4583H15.8333C16.1785 11.4583 16.4583 11.7382 16.4583 12.0833C16.4583 12.4285 16.1785 12.7083 15.8333 12.7083H13.75C13.4048 12.7083 13.125 12.4285 13.125 12.0833Z" fill="#413368"/>
<path fill-rule="evenodd" clip-rule="evenodd" d="M0 3.125C0 2.77982 0.279822 2.5 0.625 2.5H6.87239C8.17752 2.5 9.32703 3.16676 9.9987 4.17834C10.6703 3.16681 11.8198 2.5 13.125 2.5H19.375C19.7202 2.5 20 2.77982 20 3.125V15.6771C20 15.8436 19.9336 16.0032 19.8154 16.1205C19.6973 16.2379 19.5373 16.3032 19.3708 16.3021L12.9692 16.2588C12.3003 16.2543 11.6575 16.518 11.1846 16.991L10.4419 17.7336C10.1979 17.9777 9.80214 17.9777 9.55806 17.7336L8.80668 16.9822C8.33784 16.5134 7.70196 16.25 7.03892 16.25H0.625C0.279822 16.25 0 15.9702 0 15.625V3.125ZM9.37239 6.24792C9.37124 4.86802 8.25229 3.75 6.87239 3.75H1.25V15H7.03892C7.89164 15 8.71442 15.2904 9.375 15.8165L9.37239 6.24792ZM10.625 15.8183V6.25C10.625 4.86929 11.7443 3.75 13.125 3.75H18.75V15.0479L12.9777 15.0088C12.12 15.003 11.2908 15.2913 10.625 15.8183Z" fill="#413368"/>
</svg>
