<svg width="20" height="20" viewBox="0 0 20 20" fill="none" xmlns="http://www.w3.org/2000/svg">
<path fill-rule="evenodd" clip-rule="evenodd" d="M16.9346 0.625C14.6508 0.625 12.4533 1.49722 10.7911 3.06339L9.70404 4.08771C9.25501 4.51081 8.82636 4.95434 8.4194 5.41677H4.22183C3.70957 5.41677 3.23487 5.68554 2.97132 6.1248L0.714068 9.88688C0.610071 10.0602 0.59632 10.2731 0.67716 10.4584C0.757999 10.6437 0.923446 10.7784 1.12124 10.82L4.93099 11.6221C4.96322 11.6631 4.99888 11.7022 5.03794 11.7388L6.70125 13.2998L8.26121 14.9621C8.29788 15.0012 8.33695 15.0368 8.37802 15.0691L9.18007 18.8789C9.22172 19.0767 9.35645 19.2421 9.54171 19.3229C9.72698 19.4038 9.9399 19.39 10.1132 19.286L13.8753 17.0288C14.3146 16.7652 14.5833 16.2905 14.5833 15.7783V11.5804C15.046 11.1732 15.4897 10.7443 15.9129 10.295L16.9363 9.20868C18.5027 7.54595 19.3747 5.34765 19.3741 3.0633L19.3738 2.08291C19.3735 1.27766 18.7207 0.625 17.9154 0.625H16.9346Z" fill="#CFC1E5"/>
<path d="M5.41665 17.5C6.16652 16.7501 6.16654 15.3332 5.41667 14.5834C4.6668 13.8335 3.24985 13.8335 2.49998 14.5834C1.49266 15.5907 1.29583 17.8344 1.25847 18.536C1.25221 18.6536 1.34644 18.7478 1.46395 18.7415C2.16564 18.7041 4.40949 18.5072 5.41665 17.5Z" fill="#CFC1E5"/>
<path d="M14.5833 6.66667C14.5833 7.35702 14.0237 7.91667 13.3333 7.91667C12.643 7.91667 12.0833 7.35702 12.0833 6.66667C12.0833 5.97631 12.643 5.41667 13.3333 5.41667C14.0237 5.41667 14.5833 5.97631 14.5833 6.66667Z" fill="#413368"/>
<path fill-rule="evenodd" clip-rule="evenodd" d="M16.9346 0.625C14.6508 0.625 12.4533 1.49722 10.7911 3.06339L9.70404 4.08771C9.25501 4.51081 8.82636 4.95434 8.4194 5.41677H4.22183C3.70957 5.41677 3.23487 5.68554 2.97132 6.1248L0.714068 9.88688C0.610071 10.0602 0.59632 10.2731 0.67716 10.4584C0.757999 10.6437 0.923446 10.7784 1.12124 10.82L4.93099 11.6221C4.96322 11.6631 4.99888 11.7022 5.03794 11.7388L6.70125 13.2998L8.26121 14.9621C8.29788 15.0012 8.33695 15.0368 8.37802 15.0691L9.18007 18.8789C9.22172 19.0767 9.35645 19.2421 9.54171 19.3229C9.72698 19.4038 9.9399 19.39 10.1132 19.286L13.8753 17.0288C14.3146 16.7652 14.5833 16.2905 14.5833 15.7783V11.5804C15.046 11.1732 15.4897 10.7443 15.9129 10.295L16.9363 9.20868C18.5027 7.54595 19.3747 5.34765 19.3741 3.0633L19.3738 2.08291C19.3735 1.27766 18.7207 0.625 17.9154 0.625H16.9346ZM13.3333 12.5935C13.0561 12.8001 12.7734 12.9995 12.4854 13.1915L9.65709 15.077L10.2225 17.7627L13.2322 15.9569C13.2949 15.9193 13.3333 15.8515 13.3333 15.7783V12.5935ZM4.923 10.343L6.80914 7.51379C7.00092 7.22612 7.2001 6.94369 7.40644 6.66677H4.22183C4.14865 6.66677 4.08083 6.70516 4.04318 6.76792L2.23737 9.7776L4.923 10.343ZM11.6484 3.97315C13.0786 2.62552 14.9695 1.875 16.9346 1.875H17.9154C18.0305 1.875 18.1237 1.96824 18.1238 2.08327L18.1241 3.06367C18.1246 5.02927 17.3743 6.92083 16.0265 8.35156L15.0031 9.43791C14.0391 10.4612 12.9618 11.3716 11.792 12.1514L9.052 13.9781L7.59917 12.4299C7.59012 12.4203 7.58076 12.4109 7.57111 12.4019L6.02195 10.948L7.8492 8.20716C8.62868 7.03795 9.53854 5.96114 10.5613 4.99747L11.6484 3.97315Z" fill="#413368"/>
<path d="M5.41665 17.5C6.16652 16.7501 6.16654 15.3332 5.41667 14.5834C4.6668 13.8335 3.24985 13.8335 2.49998 14.5834C1.49266 15.5907 1.29583 17.8344 1.25847 18.536C1.25221 18.6536 1.34644 18.7478 1.46395 18.7415C2.16564 18.7041 4.40949 18.5072 5.41665 17.5Z" fill="#413368"/>
</svg>
