<svg width="20" height="20" viewBox="0 0 20 20" fill="none" xmlns="http://www.w3.org/2000/svg">
<path d="M3.9585 4.37498V12.7083H9.55418C10.0418 12.7083 10.4971 12.952 10.7676 13.3577L11.1061 13.8655C11.1448 13.9235 11.2098 13.9583 11.2795 13.9583H16.4585C16.6886 13.9583 16.8752 13.7718 16.8752 13.5417V6.04165C16.8752 5.81153 16.6886 5.62498 16.4585 5.62498H11.2795C10.7919 5.62498 10.3365 5.3813 10.0661 4.97559L9.72752 4.46776C9.68888 4.4098 9.62383 4.37498 9.55418 4.37498H3.9585Z" fill="#FFB9B9"/>
<path fill-rule="evenodd" clip-rule="evenodd" d="M3.3335 19.7917C3.67867 19.7917 3.9585 19.5118 3.9585 19.1667V13.9583H9.55418C9.62383 13.9583 9.68888 13.9931 9.72752 14.0511L10.0661 14.5589C10.3365 14.9646 10.7919 15.2083 11.2795 15.2083H16.4585C17.379 15.2083 18.1252 14.4621 18.1252 13.5417V6.04166C18.1252 5.12118 17.379 4.37499 16.4585 4.37499H11.2795C11.2098 4.37499 11.1448 4.34018 11.1061 4.28222L10.7676 3.77438C10.4971 3.36868 10.0418 3.12499 9.55418 3.12499H3.9585V2.74943C4.33212 2.5333 4.5835 2.12933 4.5835 1.66666C4.5835 0.9763 4.02385 0.416656 3.3335 0.416656C2.64314 0.416656 2.0835 0.9763 2.0835 1.66666C2.0835 2.12933 2.33487 2.5333 2.7085 2.74943V19.1667C2.7085 19.5118 2.98832 19.7917 3.3335 19.7917ZM9.55418 12.7083C10.0418 12.7083 10.4971 12.952 10.7676 13.3577L11.1061 13.8656C11.1448 13.9235 11.2098 13.9583 11.2795 13.9583H16.4585C16.6886 13.9583 16.8752 13.7718 16.8752 13.5417V6.04166C16.8752 5.81154 16.6886 5.62499 16.4585 5.62499H11.2795C10.7919 5.62499 10.3365 5.3813 10.0661 4.97559L9.72752 4.46776C9.68888 4.4098 9.62383 4.37499 9.55418 4.37499H3.9585V12.7083H9.55418Z" fill="#413368"/>
</svg>
