<svg width="20" height="20" viewBox="0 0 20 20" fill="none" xmlns="http://www.w3.org/2000/svg">
<path fill-rule="evenodd" clip-rule="evenodd" d="M10 2.91677C7.14009 2.91677 4.89625 4.19524 3.28826 5.61729C1.68357 7.0364 0.678671 8.62618 0.274662 9.33448C0.037434 9.75038 0.0374333 10.2498 0.274662 10.6657C0.678671 11.374 1.68357 12.9638 3.28826 14.3829C4.89625 15.805 7.14009 17.0834 10 17.0834C12.8599 17.0834 15.1038 15.8049 16.7118 14.3829C18.3164 12.9638 19.3213 11.374 19.7253 10.6657C19.9625 10.2498 19.9625 9.75032 19.7253 9.33442C19.3213 8.62612 18.3164 7.03636 16.7117 5.61726C15.1038 4.19523 12.8599 2.91677 10 2.91677ZM1.36045 9.9538C1.72835 9.30881 2.65341 7.8474 4.11634 6.55365C5.57595 5.26283 7.53739 4.16677 10 4.16677C12.4626 4.16677 14.4241 5.26282 15.8837 6.55363C17.3466 7.84736 18.2716 9.30876 18.6395 9.95374C18.6505 9.97291 18.6532 9.98838 18.6532 10C18.6532 10.0117 18.6505 10.0272 18.6395 10.0463C18.2716 10.6913 17.3466 12.1528 15.8837 13.4465C14.4241 14.7374 12.4626 15.8334 10 15.8334C7.53739 15.8334 5.57595 14.7374 4.11634 13.4466C2.65341 12.1528 1.72835 10.6914 1.36045 10.0464C1.34952 10.0272 1.34674 10.0118 1.34674 10.0001C1.34674 9.98844 1.34952 9.97297 1.36045 9.9538Z" fill="#4C516D"/>
<path fill-rule="evenodd" clip-rule="evenodd" d="M12.9167 10C12.9167 11.6108 11.6108 12.9167 10 12.9167C8.38917 12.9167 7.08333 11.6108 7.08333 10C7.08333 8.38917 8.38917 7.08334 10 7.08334C11.6108 7.08334 12.9167 8.38917 12.9167 10ZM10 11.6667C10.9205 11.6667 11.6667 10.9205 11.6667 10C11.6667 9.07953 10.9205 8.33334 10 8.33334C9.07953 8.33334 8.33333 9.07953 8.33333 10C8.33333 10.9205 9.07953 11.6667 10 11.6667Z" fill="#4C516D"/>
</svg>
